<svg xmlns="http://www.w3.org/2000/svg" xmlns:xlink="http://www.w3.org/1999/xlink" width="500" zoomAndPan="magnify" viewBox="0 0 375 374.999991" height="500" preserveAspectRatio="xMidYMid meet" version="1.0"><defs><g/></defs><g fill="#fa6559" fill-opacity="0.4"><g transform="translate(-9.06404, 275.469627)"><g><path d="M 108.03125 40.421875 C 103.238281 40.273438 98.890625 39.460938 94.984375 37.984375 C 91.085938 36.515625 87.59375 34.53125 84.5 32.03125 C 81.40625 29.53125 78.734375 26.625 76.484375 23.3125 C 74.242188 20 72.367188 16.441406 70.859375 12.640625 C 69.347656 8.847656 68.222656 4.945312 67.484375 0.9375 C 66.753906 -3.070312 66.390625 -7.03125 66.390625 -10.9375 L 66.390625 -29.609375 C 66.390625 -40.210938 63.863281 -47.90625 58.8125 -52.6875 C 53.769531 -57.476562 46.054688 -59.910156 35.671875 -59.984375 L 35.671875 -76 C 46.054688 -76 53.769531 -78.375 58.8125 -83.125 C 63.863281 -87.875 66.390625 -95.585938 66.390625 -106.265625 L 66.390625 -125.03125 C 66.390625 -128.9375 66.71875 -132.894531 67.375 -136.90625 C 68.039062 -140.925781 69.070312 -144.832031 70.46875 -148.625 C 71.875 -152.414062 73.660156 -155.96875 75.828125 -159.28125 C 78.003906 -162.59375 80.632812 -165.5 83.71875 -168 C 86.8125 -170.507812 90.363281 -172.5 94.375 -173.96875 C 98.394531 -175.445312 102.945312 -176.257812 108.03125 -176.40625 L 110.34375 -163.703125 C 105.039062 -163.554688 100.820312 -162.300781 97.6875 -159.9375 C 94.5625 -157.582031 92.207031 -154.582031 90.625 -150.9375 C 89.039062 -147.289062 88.03125 -143.1875 87.59375 -138.625 C 87.15625 -134.0625 86.9375 -129.53125 86.9375 -125.03125 L 86.9375 -106.265625 C 86.851562 -97.421875 84.785156 -89.664062 80.734375 -83 C 76.691406 -76.34375 70.398438 -71.285156 61.859375 -67.828125 C 70.398438 -64.429688 76.691406 -59.398438 80.734375 -52.734375 C 84.785156 -46.078125 86.851562 -38.367188 86.9375 -29.609375 L 86.9375 -10.9375 C 86.9375 -6.375 87.300781 -1.828125 88.03125 2.703125 C 88.769531 7.234375 90.039062 11.320312 91.84375 14.96875 C 93.644531 18.613281 96.035156 21.613281 99.015625 23.96875 C 102.003906 26.320312 105.78125 27.570312 110.34375 27.71875 Z M 108.03125 40.421875 "/></g></g><g transform="translate(126.690323, 275.469627)"><g><path d="M 103.390625 -40.65625 C 103.390625 -45.582031 102.265625 -49.738281 100.015625 -53.125 C 97.773438 -56.519531 94.882812 -59.375 91.34375 -61.6875 C 87.8125 -64.007812 83.925781 -65.941406 79.6875 -67.484375 C 75.457031 -69.035156 71.390625 -70.4375 67.484375 -71.6875 C 61.816406 -73.53125 56.054688 -75.738281 50.203125 -78.3125 C 44.347656 -80.894531 39.007812 -84.0625 34.1875 -87.8125 C 29.363281 -91.570312 25.421875 -96.007812 22.359375 -101.125 C 19.304688 -106.238281 17.78125 -112.257812 17.78125 -119.1875 C 17.78125 -126.101562 19.304688 -132.285156 22.359375 -137.734375 C 25.421875 -143.191406 29.414062 -147.796875 34.34375 -151.546875 C 39.28125 -155.304688 44.878906 -158.160156 51.140625 -160.109375 C 57.398438 -162.054688 63.695312 -163.03125 70.03125 -163.03125 C 77.03125 -163.03125 83.769531 -161.867188 90.25 -159.546875 C 96.726562 -157.234375 102.46875 -153.976562 107.46875 -149.78125 C 112.476562 -145.582031 116.492188 -140.5 119.515625 -134.53125 C 122.535156 -128.570312 124.117188 -121.910156 124.265625 -114.546875 L 103.28125 -114.546875 C 102.6875 -119.179688 101.539062 -123.394531 99.84375 -127.1875 C 98.15625 -130.976562 95.910156 -134.238281 93.109375 -136.96875 C 90.316406 -139.695312 86.988281 -141.8125 83.125 -143.3125 C 79.257812 -144.820312 74.894531 -145.578125 70.03125 -145.578125 C 66.125 -145.578125 62.3125 -145.023438 58.59375 -143.921875 C 54.875 -142.816406 51.5625 -141.160156 48.65625 -138.953125 C 45.75 -136.742188 43.429688 -134.019531 41.703125 -130.78125 C 39.972656 -127.539062 39.109375 -123.785156 39.109375 -119.515625 C 39.179688 -114.878906 40.359375 -110.957031 42.640625 -107.75 C 44.921875 -104.550781 47.8125 -101.84375 51.3125 -99.625 C 54.8125 -97.414062 58.601562 -95.578125 62.6875 -94.109375 C 66.769531 -92.640625 70.617188 -91.351562 74.234375 -90.25 C 78.203125 -88.988281 82.210938 -87.566406 86.265625 -85.984375 C 90.316406 -84.398438 94.21875 -82.578125 97.96875 -80.515625 C 101.726562 -78.460938 105.226562 -76.144531 108.46875 -73.5625 C 111.707031 -70.988281 114.539062 -68.0625 116.96875 -64.78125 C 119.40625 -61.507812 121.300781 -57.898438 122.65625 -53.953125 C 124.019531 -50.015625 124.703125 -45.65625 124.703125 -40.875 C 124.703125 -33.65625 123.097656 -27.359375 119.890625 -21.984375 C 116.691406 -16.609375 112.550781 -12.132812 107.46875 -8.5625 C 102.394531 -4.988281 96.65625 -2.300781 90.25 -0.5 C 83.84375 1.300781 77.4375 2.203125 71.03125 2.203125 C 63.882812 2.203125 56.882812 1.097656 50.03125 -1.109375 C 43.1875 -3.316406 37.054688 -6.5 31.640625 -10.65625 C 26.234375 -14.820312 21.832031 -19.90625 18.4375 -25.90625 C 15.050781 -31.90625 13.25 -38.734375 13.03125 -46.390625 L 33.90625 -46.390625 C 34.570312 -41.378906 35.9375 -36.941406 38 -33.078125 C 40.0625 -29.210938 42.710938 -25.9375 45.953125 -23.25 C 49.191406 -20.5625 52.925781 -18.535156 57.15625 -17.171875 C 61.394531 -15.804688 66.019531 -15.125 71.03125 -15.125 C 75 -15.125 78.914062 -15.617188 82.78125 -16.609375 C 86.65625 -17.609375 90.097656 -19.15625 93.109375 -21.25 C 96.128906 -23.351562 98.597656 -26.003906 100.515625 -29.203125 C 102.429688 -32.410156 103.390625 -36.226562 103.390625 -40.65625 Z M 103.390625 -40.65625 "/></g></g><g transform="translate(262.444686, 275.469627)"><g><path d="M 35.671875 27.71875 C 40.171875 27.570312 43.925781 26.320312 46.9375 23.96875 C 49.957031 21.613281 52.367188 18.613281 54.171875 14.96875 C 55.984375 11.320312 57.273438 7.234375 58.046875 2.703125 C 58.816406 -1.828125 59.203125 -6.375 59.203125 -10.9375 L 59.203125 -29.609375 C 59.203125 -38.367188 61.226562 -46.078125 65.28125 -52.734375 C 69.332031 -59.398438 75.628906 -64.429688 84.171875 -67.828125 C 75.628906 -71.285156 69.332031 -76.34375 65.28125 -83 C 61.226562 -89.664062 59.203125 -97.421875 59.203125 -106.265625 L 59.203125 -125.03125 C 59.203125 -129.53125 58.960938 -134.0625 58.484375 -138.625 C 58.003906 -143.1875 56.972656 -147.289062 55.390625 -150.9375 C 53.804688 -154.582031 51.46875 -157.582031 48.375 -159.9375 C 45.28125 -162.300781 41.082031 -163.554688 35.78125 -163.703125 L 38 -176.40625 C 43.082031 -176.257812 47.628906 -175.445312 51.640625 -173.96875 C 55.648438 -172.5 59.203125 -170.507812 62.296875 -168 C 65.390625 -165.5 68.019531 -162.59375 70.1875 -159.28125 C 72.363281 -155.96875 74.148438 -152.414062 75.546875 -148.625 C 76.953125 -144.832031 77.984375 -140.925781 78.640625 -136.90625 C 79.304688 -132.894531 79.640625 -128.9375 79.640625 -125.03125 L 79.640625 -106.265625 C 79.640625 -95.585938 82.179688 -87.875 87.265625 -83.125 C 92.347656 -78.375 100.039062 -76 110.34375 -76 L 110.34375 -59.984375 C 100.039062 -59.910156 92.347656 -57.476562 87.265625 -52.6875 C 82.179688 -47.90625 79.640625 -40.210938 79.640625 -29.609375 L 79.640625 -10.9375 C 79.640625 -5.039062 78.828125 0.90625 77.203125 6.90625 C 75.585938 12.90625 73.066406 18.367188 69.640625 23.296875 C 66.210938 28.234375 61.882812 32.285156 56.65625 35.453125 C 51.4375 38.617188 45.21875 40.273438 38 40.421875 Z M 35.671875 27.71875 "/></g></g></g><g fill="#e63946" fill-opacity="1"><g transform="translate(-16.133428, 275.469627)"><g><path d="M 108.03125 40.421875 C 103.238281 40.273438 98.890625 39.460938 94.984375 37.984375 C 91.085938 36.515625 87.59375 34.53125 84.5 32.03125 C 81.40625 29.53125 78.734375 26.625 76.484375 23.3125 C 74.242188 20 72.367188 16.441406 70.859375 12.640625 C 69.347656 8.847656 68.222656 4.945312 67.484375 0.9375 C 66.753906 -3.070312 66.390625 -7.03125 66.390625 -10.9375 L 66.390625 -29.609375 C 66.390625 -40.210938 63.863281 -47.90625 58.8125 -52.6875 C 53.769531 -57.476562 46.054688 -59.910156 35.671875 -59.984375 L 35.671875 -76 C 46.054688 -76 53.769531 -78.375 58.8125 -83.125 C 63.863281 -87.875 66.390625 -95.585938 66.390625 -106.265625 L 66.390625 -125.03125 C 66.390625 -128.9375 66.71875 -132.894531 67.375 -136.90625 C 68.039062 -140.925781 69.070312 -144.832031 70.46875 -148.625 C 71.875 -152.414062 73.660156 -155.96875 75.828125 -159.28125 C 78.003906 -162.59375 80.632812 -165.5 83.71875 -168 C 86.8125 -170.507812 90.363281 -172.5 94.375 -173.96875 C 98.394531 -175.445312 102.945312 -176.257812 108.03125 -176.40625 L 110.34375 -163.703125 C 105.039062 -163.554688 100.820312 -162.300781 97.6875 -159.9375 C 94.5625 -157.582031 92.207031 -154.582031 90.625 -150.9375 C 89.039062 -147.289062 88.03125 -143.1875 87.59375 -138.625 C 87.15625 -134.0625 86.9375 -129.53125 86.9375 -125.03125 L 86.9375 -106.265625 C 86.851562 -97.421875 84.785156 -89.664062 80.734375 -83 C 76.691406 -76.34375 70.398438 -71.285156 61.859375 -67.828125 C 70.398438 -64.429688 76.691406 -59.398438 80.734375 -52.734375 C 84.785156 -46.078125 86.851562 -38.367188 86.9375 -29.609375 L 86.9375 -10.9375 C 86.9375 -6.375 87.300781 -1.828125 88.03125 2.703125 C 88.769531 7.234375 90.039062 11.320312 91.84375 14.96875 C 93.644531 18.613281 96.035156 21.613281 99.015625 23.96875 C 102.003906 26.320312 105.78125 27.570312 110.34375 27.71875 Z M 108.03125 40.421875 "/></g></g><g transform="translate(119.620934, 275.469627)"><g><path d="M 103.390625 -40.65625 C 103.390625 -45.582031 102.265625 -49.738281 100.015625 -53.125 C 97.773438 -56.519531 94.882812 -59.375 91.34375 -61.6875 C 87.8125 -64.007812 83.925781 -65.941406 79.6875 -67.484375 C 75.457031 -69.035156 71.390625 -70.4375 67.484375 -71.6875 C 61.816406 -73.53125 56.054688 -75.738281 50.203125 -78.3125 C 44.347656 -80.894531 39.007812 -84.0625 34.1875 -87.8125 C 29.363281 -91.570312 25.421875 -96.007812 22.359375 -101.125 C 19.304688 -106.238281 17.78125 -112.257812 17.78125 -119.1875 C 17.78125 -126.101562 19.304688 -132.285156 22.359375 -137.734375 C 25.421875 -143.191406 29.414062 -147.796875 34.34375 -151.546875 C 39.28125 -155.304688 44.878906 -158.160156 51.140625 -160.109375 C 57.398438 -162.054688 63.695312 -163.03125 70.03125 -163.03125 C 77.03125 -163.03125 83.769531 -161.867188 90.25 -159.546875 C 96.726562 -157.234375 102.46875 -153.976562 107.46875 -149.78125 C 112.476562 -145.582031 116.492188 -140.5 119.515625 -134.53125 C 122.535156 -128.570312 124.117188 -121.910156 124.265625 -114.546875 L 103.28125 -114.546875 C 102.6875 -119.179688 101.539062 -123.394531 99.84375 -127.1875 C 98.15625 -130.976562 95.910156 -134.238281 93.109375 -136.96875 C 90.316406 -139.695312 86.988281 -141.8125 83.125 -143.3125 C 79.257812 -144.820312 74.894531 -145.578125 70.03125 -145.578125 C 66.125 -145.578125 62.3125 -145.023438 58.59375 -143.921875 C 54.875 -142.816406 51.5625 -141.160156 48.65625 -138.953125 C 45.75 -136.742188 43.429688 -134.019531 41.703125 -130.78125 C 39.972656 -127.539062 39.109375 -123.785156 39.109375 -119.515625 C 39.179688 -114.878906 40.359375 -110.957031 42.640625 -107.75 C 44.921875 -104.550781 47.8125 -101.84375 51.3125 -99.625 C 54.8125 -97.414062 58.601562 -95.578125 62.6875 -94.109375 C 66.769531 -92.640625 70.617188 -91.351562 74.234375 -90.25 C 78.203125 -88.988281 82.210938 -87.566406 86.265625 -85.984375 C 90.316406 -84.398438 94.21875 -82.578125 97.96875 -80.515625 C 101.726562 -78.460938 105.226562 -76.144531 108.46875 -73.5625 C 111.707031 -70.988281 114.539062 -68.0625 116.96875 -64.78125 C 119.40625 -61.507812 121.300781 -57.898438 122.65625 -53.953125 C 124.019531 -50.015625 124.703125 -45.65625 124.703125 -40.875 C 124.703125 -33.65625 123.097656 -27.359375 119.890625 -21.984375 C 116.691406 -16.609375 112.550781 -12.132812 107.46875 -8.5625 C 102.394531 -4.988281 96.65625 -2.300781 90.25 -0.5 C 83.84375 1.300781 77.4375 2.203125 71.03125 2.203125 C 63.882812 2.203125 56.882812 1.097656 50.03125 -1.109375 C 43.1875 -3.316406 37.054688 -6.5 31.640625 -10.65625 C 26.234375 -14.820312 21.832031 -19.90625 18.4375 -25.90625 C 15.050781 -31.90625 13.25 -38.734375 13.03125 -46.390625 L 33.90625 -46.390625 C 34.570312 -41.378906 35.9375 -36.941406 38 -33.078125 C 40.0625 -29.210938 42.710938 -25.9375 45.953125 -23.25 C 49.191406 -20.5625 52.925781 -18.535156 57.15625 -17.171875 C 61.394531 -15.804688 66.019531 -15.125 71.03125 -15.125 C 75 -15.125 78.914062 -15.617188 82.78125 -16.609375 C 86.65625 -17.609375 90.097656 -19.15625 93.109375 -21.25 C 96.128906 -23.351562 98.597656 -26.003906 100.515625 -29.203125 C 102.429688 -32.410156 103.390625 -36.226562 103.390625 -40.65625 Z M 103.390625 -40.65625 "/></g></g><g transform="translate(255.375297, 275.469627)"><g><path d="M 35.671875 27.71875 C 40.171875 27.570312 43.925781 26.320312 46.9375 23.96875 C 49.957031 21.613281 52.367188 18.613281 54.171875 14.96875 C 55.984375 11.320312 57.273438 7.234375 58.046875 2.703125 C 58.816406 -1.828125 59.203125 -6.375 59.203125 -10.9375 L 59.203125 -29.609375 C 59.203125 -38.367188 61.226562 -46.078125 65.28125 -52.734375 C 69.332031 -59.398438 75.628906 -64.429688 84.171875 -67.828125 C 75.628906 -71.285156 69.332031 -76.34375 65.28125 -83 C 61.226562 -89.664062 59.203125 -97.421875 59.203125 -106.265625 L 59.203125 -125.03125 C 59.203125 -129.53125 58.960938 -134.0625 58.484375 -138.625 C 58.003906 -143.1875 56.972656 -147.289062 55.390625 -150.9375 C 53.804688 -154.582031 51.46875 -157.582031 48.375 -159.9375 C 45.28125 -162.300781 41.082031 -163.554688 35.78125 -163.703125 L 38 -176.40625 C 43.082031 -176.257812 47.628906 -175.445312 51.640625 -173.96875 C 55.648438 -172.5 59.203125 -170.507812 62.296875 -168 C 65.390625 -165.5 68.019531 -162.59375 70.1875 -159.28125 C 72.363281 -155.96875 74.148438 -152.414062 75.546875 -148.625 C 76.953125 -144.832031 77.984375 -140.925781 78.640625 -136.90625 C 79.304688 -132.894531 79.640625 -128.9375 79.640625 -125.03125 L 79.640625 -106.265625 C 79.640625 -95.585938 82.179688 -87.875 87.265625 -83.125 C 92.347656 -78.375 100.039062 -76 110.34375 -76 L 110.34375 -59.984375 C 100.039062 -59.910156 92.347656 -57.476562 87.265625 -52.6875 C 82.179688 -47.90625 79.640625 -40.210938 79.640625 -29.609375 L 79.640625 -10.9375 C 79.640625 -5.039062 78.828125 0.90625 77.203125 6.90625 C 75.585938 12.90625 73.066406 18.367188 69.640625 23.296875 C 66.210938 28.234375 61.882812 32.285156 56.65625 35.453125 C 51.4375 38.617188 45.21875 40.273438 38 40.421875 Z M 35.671875 27.71875 "/></g></g></g></svg>